<svg xmlns="http://www.w3.org/2000/svg" width="90" height="30"><desc>Created with Sketch.</desc><g fill="none"><rect width="90" height="30" fill="#F60E0E" rx="2"/><path fill="#fff" d="M25.38 22.02l-4.737-4.03c-.49-.44-1.014-.643-1.437-.623C20.324 16.057 21 14.357 21 12.5 21 8.358 17.64 5 13.5 5 9.358 5 6 8.358 6 12.5c0 4.142 3.358 7.5 7.5 7.5 1.857 0 3.556-.676 4.866-1.794-.02.423.184.947.624 1.437l4.03 4.737c.69.766 1.816.83 2.504.144.687-.688.623-1.815-.144-2.505zM13.5 17.5c-2.76 0-5-2.238-5-5 0-2.76 2.24-5 5-5 2.762 0 5 2.24 5 5 0 2.762-2.238 5-5 5z"/><text fill="#fff" font-family="Arial" font-size="16"><tspan x="36" y="21">ZOEK</tspan></text></g></svg>