<svg xmlns="http://www.w3.org/2000/svg" width="30" height="30"><desc>Created with Sketch.</desc><g fill="none"><path fill="#559AC7" d="M0 0h30v30H0z"/><path fill="#fff" d="M24.996 8.827c-.7.31-1.45.52-2.238.614.804-.48 1.422-1.24 1.713-2.15-.75.45-1.58.77-2.47.95-.71-.757-1.72-1.23-2.84-1.23-2.152 0-3.9 1.745-3.9 3.897 0 .306.037.603.1.888-3.24-.16-6.11-1.713-8.03-4.07-.335.575-.527 1.244-.527 1.96 0 1.35.688 2.544 1.734 3.242-.64-.02-1.24-.195-1.766-.487v.05c0 1.887 1.344 3.463 3.127 3.82-.33.09-.673.137-1.03.137-.25 0-.494-.023-.732-.07.498 1.55 1.937 2.676 3.64 2.708-1.33 1.046-3.01 1.67-4.84 1.67-.312 0-.622-.018-.93-.054 1.728 1.106 3.776 1.75 5.977 1.75 7.17 0 11.09-5.94 11.09-11.09 0-.17-.005-.336-.013-.503.76-.55 1.422-1.237 1.944-2.02"/></g></svg>